<svg width="36" height="36" viewBox="0 0 36 36" fill="none" xmlns="http://www.w3.org/2000/svg">
<path d="M13.5613 3.7576C12.3368 3.45457 10.8062 3.15154 9.58169 3.15154C8.3572 3.15154 6.82659 3.45457 5.6021 3.7576C4.53067 3.90912 3.76537 4.81821 3.61231 5.87881C3.45924 7.09094 3.00006 9.51518 3.00006 11.1818C3.00006 12.8485 3.30618 14.9697 3.45924 16.4849C3.61231 17.5455 4.37761 18.4546 5.44904 18.6061C6.52047 18.9091 8.20414 19.0606 9.42863 19.0606C10.6531 19.0606 12.1837 18.7576 13.4082 18.6061C14.4797 18.4546 15.245 17.5455 15.398 16.4849C15.7041 14.9697 15.8572 12.8485 15.8572 11.1818C15.8572 9.51518 15.5511 7.09094 15.398 5.87881C15.398 4.81821 14.6327 3.90912 13.5613 3.7576Z" fill="#1E1E1E"/>
<path d="M30.398 17.3937C29.3266 17.0907 27.6429 16.9392 26.4184 16.9392C25.1939 16.9392 23.6633 17.2422 22.4388 17.3937C21.3674 17.5453 20.6021 18.4543 20.4491 19.515C20.1429 21.0301 19.9899 23.1513 19.9899 24.818C19.9899 26.4847 20.296 28.6059 20.4491 30.121C20.6021 31.1816 21.3674 32.0907 22.4388 32.2422C23.5103 32.5453 25.1939 32.6968 26.4184 32.6968C27.6429 32.6968 29.1735 32.3937 30.398 32.2422C31.4695 32.0907 32.2348 31.1816 32.3878 30.121C32.694 28.6059 32.847 26.4847 32.847 24.818C32.847 23.1513 32.694 21.0301 32.3878 19.515C32.2348 18.4543 31.4695 17.5453 30.398 17.3937Z" fill="#1E1E1E"/>
<path d="M13.7143 23.4544C12.4899 23.1513 10.9592 22.9998 9.58169 22.9998C8.20414 22.9998 6.67353 23.3028 5.44904 23.4544C4.53067 23.6059 3.76537 24.3634 3.45924 25.2725C3.15312 26.3331 3.00006 27.2422 3.00006 27.9998C3.00006 28.7574 3.15312 29.515 3.45924 30.7271C3.76537 31.6362 4.53067 32.2422 5.44904 32.5453C6.67353 32.8483 8.20414 32.9998 9.58169 32.9998C10.9592 32.9998 12.4899 32.6968 13.7143 32.5453C14.6327 32.3937 15.398 31.6362 15.7041 30.7271C16.0103 29.6665 16.1633 28.7574 16.1633 27.9998C16.1633 27.2422 16.0103 26.4847 15.7041 25.2725C15.398 24.2119 14.6327 23.6059 13.7143 23.4544Z" fill="#1E1E1E"/>
<path d="M22.2858 12.5453C23.5103 12.8484 25.0409 12.9999 26.4184 12.9999C27.796 12.9999 29.3266 12.6968 30.5511 12.5453C31.4695 12.3938 32.2348 11.6362 32.5409 10.7272C32.847 9.66654 33.0001 8.75745 33.0001 7.99988C33.0001 7.2423 32.847 6.48473 32.5409 5.27261C32.2348 4.36351 31.4695 3.75745 30.5511 3.45442C29.3266 3.15139 27.796 2.99988 26.4184 2.99988C25.0409 2.99988 23.5103 3.30291 22.2858 3.45442C21.3674 3.60594 20.6021 4.36351 20.296 5.27261C19.9899 6.33321 19.8368 7.2423 19.8368 7.99988C19.8368 8.75745 19.9899 9.51503 20.296 10.7272C20.6021 11.7878 21.3674 12.3938 22.2858 12.5453Z" fill="#1E1E1E"/>
</svg>
