<svg width="72" height="282" viewBox="0 0 72 282" fill="none" xmlns="http://www.w3.org/2000/svg">
<rect width="72" height="281.917" rx="36" fill="#E7E7E7"/>
<ellipse cx="35.5" cy="179.417" rx="30.5" ry="27.5" fill="url(#paint0_linear_6_87)"/>
<path opacity="0.5" d="M35.448 43.4153C39.408 43.4153 42.336 41.3949 42.336 38.1059C42.336 35.8271 40.896 34.394 37.728 33.3603L35.808 32.7495C34.416 32.2796 33.48 31.4104 33.48 30.0478C33.48 28.6147 34.488 27.6045 36.384 27.6045C38.52 27.6045 39.792 28.9201 40.584 31.9272H41.664V27.722C40.056 26.8292 38.352 26.4533 36.648 26.4298C32.376 26.4064 30.096 28.7557 30.096 31.6453C30.096 34.394 32.16 35.4982 34.512 36.2734L36.144 36.8373C38.112 37.4716 38.832 38.5758 38.832 39.7504C38.832 41.2775 37.776 42.1937 35.832 42.1937C33.624 42.1937 31.992 41.019 30.912 37.824H30V42.1232C31.632 43.0159 33.696 43.4153 35.448 43.4153Z" fill="#1E1E1E"/>
<path opacity="0.5" d="M32.048 97.8877H26.168V98.7804C26.864 98.8509 27.44 99.0389 27.752 99.3443C28.136 99.6732 28.304 100.19 28.304 100.965V111.067C28.304 112.054 27.92 112.618 27.368 112.9C26.96 113.111 26.504 113.229 26 113.299V114.168H32.216V113.299C31.616 113.229 31.088 113.064 30.68 112.806C30.2 112.5 29.912 111.984 29.912 111.067V101.388L35.024 111.138H36.032L41.096 101.365V111.937C41.096 112.547 40.904 112.9 40.496 113.088C40.28 113.182 39.8 113.229 39.464 113.252V114.168H46.688V113.252C46.28 113.205 45.872 113.158 45.656 113.064C45.272 112.876 45.056 112.547 45.056 111.937V100.12C45.056 99.5087 45.248 99.1563 45.632 98.9684C45.872 98.8744 46.352 98.8274 46.688 98.8039V97.8877H41.24L36.656 106.745L32.048 97.8877Z" fill="#1E1E1E"/>
<path d="M30.1194 184.74L42.5501 184.558L42.811 179.409L41.8977 179.328C41.0249 182.02 40.0842 183.349 37.4925 183.387L35.6927 183.413L35.5059 170.611C35.497 170 35.6598 169.645 36.065 169.451C36.3036 169.354 36.7829 169.3 37.1185 169.272L37.1051 168.355L29.8819 168.461L29.8953 169.377C30.3039 169.418 30.7125 169.459 30.9299 169.55C31.3166 169.732 31.5374 170.058 31.5463 170.669L31.716 182.296C31.7256 182.954 31.6114 183.355 31.2545 183.572C31.0166 183.716 30.5137 183.794 30.1061 183.824L30.1194 184.74Z" fill="#F9F9F9"/>
<g opacity="0.5">
<path d="M21.024 239.809C21.816 239.88 22.824 240.232 23.424 241.125L27.552 247.327L23.664 252.401C22.992 253.153 22.104 253.905 21 254.163V255.127H26.712V254.163C25.776 254.022 25.248 253.623 25.248 253.059C25.248 252.777 25.392 252.495 25.632 252.167L28.344 248.525L30.936 252.401C31.128 252.66 31.224 252.918 31.224 253.13C31.224 253.717 30.432 254.046 29.16 254.163V255.127H37.248V254.163C36.432 253.999 35.832 253.6 35.328 252.848L30.816 246.058L34.488 241.43C35.304 240.467 36.216 239.95 37.08 239.809V238.846H31.344V239.809C32.232 239.856 32.856 240.185 32.856 240.772C32.856 241.054 32.712 241.383 32.448 241.736L30.024 244.884L27.744 241.43C27.552 241.148 27.48 240.913 27.48 240.725C27.48 240.162 28.104 239.856 28.968 239.809V238.846H21.024V239.809Z" fill="#1E1E1E"/>
<path d="M38.4829 255.127H50.9149L51.2509 249.982L50.3389 249.888C49.4269 252.566 48.4669 253.881 45.8749 253.881H44.0749V241.078C44.0749 240.467 44.2429 240.115 44.6509 239.927C44.8909 239.833 45.3709 239.786 45.7069 239.762V238.846H38.4829V239.762C38.8909 239.809 39.2989 239.856 39.5149 239.95C39.8989 240.138 40.1149 240.467 40.1149 241.078V252.707C40.1149 253.365 39.9949 253.764 39.6349 253.975C39.3949 254.116 38.8909 254.187 38.4829 254.21V255.127Z" fill="#1E1E1E"/>
</g>
<defs>
<linearGradient id="paint0_linear_6_87" x1="35.5" y1="151.917" x2="35.5" y2="206.917" gradientUnits="userSpaceOnUse">
<stop stop-color="#F2BEFF"/>
<stop offset="0.494" stop-color="#DD789A"/>
<stop offset="1" stop-color="#F48E48"/>
</linearGradient>
</defs>
</svg>
