<svg width="26" height="24" viewBox="0 0 26 24" fill="none" xmlns="http://www.w3.org/2000/svg">
<path fill-rule="evenodd" clip-rule="evenodd" d="M12.4715 4.43902C8.23817 4.43902 4.80894 7.60283 4.80894 11.5026C4.80894 15.4024 8.23817 18.5662 12.4715 18.5662C14.5836 18.5662 16.4937 17.7801 17.881 16.5055C19.2745 15.2251 20.1341 13.4574 20.1341 11.5026C20.1341 7.60283 16.7049 4.43902 12.4715 4.43902ZM2.16666 11.5026C2.16666 6.25314 6.78175 2 12.4715 2C18.1613 2 22.7764 6.25314 22.7764 11.5026C22.7764 13.6919 21.9724 15.7095 20.6238 17.3157L23.4458 19.9177C23.9621 20.3936 23.9626 21.1658 23.4469 21.6423C22.9313 22.1188 22.0948 22.1193 21.5785 21.6433L18.7518 19.037C17.0135 20.2706 14.8346 21.0052 12.4715 21.0052C6.78175 21.0052 2.16666 16.7521 2.16666 11.5026Z" fill="#1E1E1E"/>
</svg>
