<svg width="42" height="42" viewBox="0 0 42 42" fill="none" xmlns="http://www.w3.org/2000/svg">
<path d="M38.5 14.2828L36.5184 26.8333C36.1581 29.3081 34.1765 30.899 31.6544 30.899H14.3603C12.0184 30.899 9.85662 29.1313 9.49632 26.8333L7.33456 12.1616L6.79412 8.09596C6.61397 7.03535 5.71324 6.32828 4.45221 6.32828H3.19118C2.47059 6.32828 1.75 5.62121 1.75 4.91414C1.75 4.20707 2.47059 3.5 3.19118 3.5H4.45221C6.97427 3.5 9.13603 5.26768 9.31618 7.74242L9.67647 10.5707H35.2574C36.1581 10.5707 37.0588 10.9242 37.5993 11.6313C38.3199 12.3384 38.5 13.399 38.5 14.2828Z" fill="white"/>
<path d="M32.0147 38.5C33.0096 38.5 33.8162 37.7086 33.8162 36.7323C33.8162 35.7561 33.0096 34.9646 32.0147 34.9646C31.0198 34.9646 30.2132 35.7561 30.2132 36.7323C30.2132 37.7086 31.0198 38.5 32.0147 38.5Z" fill="white"/>
<path d="M14 38.5C14.9949 38.5 15.8015 37.7086 15.8015 36.7323C15.8015 35.7561 14.9949 34.9646 14 34.9646C13.0051 34.9646 12.1985 35.7561 12.1985 36.7323C12.1985 37.7086 13.0051 38.5 14 38.5Z" fill="white"/>
</svg>
