<svg width="33" height="26" viewBox="0 0 33 26" fill="none" xmlns="http://www.w3.org/2000/svg">
<path fill-rule="evenodd" clip-rule="evenodd" d="M17.4544 0.275717C18.0422 -0.129528 18.9357 -0.0825975 19.4501 0.38054L32.6501 12.2662C33.1166 12.6864 33.1166 13.3136 32.6501 13.7338L19.4501 25.6195C18.9357 26.0826 18.0422 26.1295 17.4544 25.7243C16.8666 25.319 16.807 24.6151 17.3214 24.1519L28.469 14.1143L1.41428 14.1143C0.633196 14.1143 -1.1903e-06 13.6154 -1.1365e-06 13C-1.0827e-06 12.3846 0.633196 11.8857 1.41428 11.8857L28.469 11.8857L17.3214 1.84806C16.807 1.38492 16.8666 0.680962 17.4544 0.275717Z" fill="white"/>
</svg>
